<svg width="43" height="42" viewBox="0 0 43 42" fill="none" xmlns="http://www.w3.org/2000/svg">
<path d="M27.5582 15.5385L19.3389 24.9004L15.1679 20.6597C14.8826 20.3695 14.4205 20.3695 14.1351 20.6597C13.8498 20.9498 13.8498 21.4197 14.1351 21.7098L18.8525 26.5066C18.9893 26.6463 19.1753 26.724 19.3691 26.724C19.3759 26.724 19.3827 26.724 19.3896 26.7235C19.5907 26.7176 19.7801 26.6284 19.914 26.4759L28.6484 16.5278C28.9172 16.2218 28.8909 15.7524 28.59 15.4791C28.2881 15.2063 27.8275 15.2331 27.5582 15.5385Z" fill="#AE1F16"/>
<path d="M42.1717 21.0182C42.1856 20.9621 42.195 20.9042 42.195 20.8437C42.195 18.8787 40.1396 17.8633 38.3255 16.9668C37.0377 16.3308 35.7069 15.6727 35.3525 14.8435C34.9917 13.9971 35.5012 12.618 35.9929 11.2836C36.6789 9.42426 37.3877 7.50201 36.0796 6.20594C34.7969 4.93394 32.9213 5.36449 31.1067 5.78276C29.8368 6.07471 28.5229 6.37599 27.648 6.00934C26.794 5.65104 26.0842 4.54025 25.3977 3.46486C24.402 1.90731 23.2744 0.141357 21.317 0.141357C19.3562 0.141357 18.2499 1.94564 17.2744 3.53809C16.5974 4.64347 15.897 5.78571 15.044 6.14352C14.1721 6.50968 12.8443 6.17792 11.5605 5.85796C9.73153 5.40283 7.8406 4.93001 6.55487 6.20643C5.25575 7.49415 5.88524 9.42622 6.49489 11.2954C6.93008 12.6288 7.37964 14.008 7.01583 14.8617C6.66094 15.6943 5.38909 16.3465 4.15837 16.9776C2.41515 17.8711 0.438965 18.8841 0.438965 20.8447C0.438965 20.9056 0.448878 20.9641 0.462757 21.0206C0.448878 21.0767 0.439461 21.1347 0.439461 21.1951C0.439461 23.1557 2.41564 24.1687 4.15936 25.0622C5.38908 25.6928 6.66144 26.345 7.01632 27.1776C7.38014 28.0313 6.93058 29.4105 6.49539 30.7444C5.88623 32.6131 5.25625 34.5447 6.55487 35.8329C7.84159 37.1093 9.73252 36.6379 11.561 36.1813C12.8452 35.8619 14.1736 35.5311 15.045 35.8968C15.8975 36.2541 16.5979 37.3963 17.2749 38.5012C18.2509 40.0932 19.3567 41.8975 21.3175 41.8975C23.2748 41.8975 24.403 40.1315 25.3982 38.574C26.0852 37.4986 26.795 36.3878 27.6475 36.0295C28.5258 35.6618 29.8373 35.9636 31.1067 36.2561C32.9203 36.6733 34.7969 37.1059 36.0786 35.8334C37.3882 34.5368 36.6789 32.6141 35.9929 30.7552C35.5007 29.4208 34.9917 28.0417 35.352 27.1963C35.7069 26.3666 37.0377 25.7085 38.3255 25.0725C40.1391 24.1765 42.195 23.1606 42.195 21.1956C42.1955 21.1332 42.1856 21.0747 42.1717 21.0182ZM37.6628 23.7509C36.1337 24.5063 34.5525 25.2878 33.983 26.6203C33.3947 28.0014 34.0058 29.6582 34.5966 31.26C35.1458 32.7497 35.6653 34.1579 35.0274 34.7889C34.329 35.4829 32.9263 35.16 31.4428 34.8189C29.9419 34.4739 28.39 34.1166 27.0686 34.6705C25.7873 35.2082 24.9512 36.5175 24.1422 37.7836C23.2753 39.1402 22.4565 40.4215 21.3175 40.4215C20.1929 40.4215 19.3929 39.1161 18.5453 37.734C17.7458 36.4291 16.9185 35.0794 15.6239 34.5373C14.2931 33.978 12.7203 34.3702 11.1977 34.7501C9.70576 35.1212 8.2966 35.4741 7.60616 34.7889C6.9504 34.1392 7.41632 32.7099 7.9095 31.1966C8.42845 29.6066 8.96425 27.962 8.38533 26.6021C7.82127 25.279 6.30654 24.5024 4.84188 23.7509C3.34252 22.9827 1.92593 22.2567 1.92593 21.1936C1.92593 21.1327 1.91602 21.0742 1.90214 21.0172C1.91602 20.9612 1.92544 20.9032 1.92544 20.8427C1.92544 19.7796 3.34153 19.0537 4.84089 18.2855C6.30605 17.5344 7.82127 16.7579 8.38483 15.4338C8.96376 14.0743 8.42795 12.4303 7.909 10.8398C7.41582 9.32645 6.94941 7.89718 7.60616 7.24693C8.29512 6.56227 9.70427 6.91418 11.1972 7.28625C12.7189 7.66519 14.2916 8.05888 15.6229 7.49956C16.9176 6.95694 17.7448 5.60729 18.5453 4.30237C19.3924 2.91979 20.1924 1.61437 21.317 1.61437C22.456 1.61437 23.2748 2.89571 24.1413 4.25273C24.9507 5.51882 25.7868 6.82817 27.0686 7.36636C28.39 7.92028 29.9419 7.56296 31.4428 7.21744C32.9263 6.87634 34.3285 6.55342 35.0279 7.24791C35.6648 7.8785 35.1453 9.28615 34.5961 10.7764C34.0053 12.3786 33.3942 14.0355 33.983 15.4171C34.5515 16.749 36.1332 17.5305 37.6623 18.2859C39.2285 19.0596 40.7081 19.7909 40.7081 20.8427C40.7081 20.9037 40.718 20.9621 40.7319 21.0187C40.718 21.0747 40.7086 21.1327 40.7086 21.1931C40.7086 22.2464 39.229 22.9773 37.6628 23.7509Z" fill="#AE1F16"/>
</svg>
