<svg width="30" height="32" viewBox="0 0 30 32" fill="none" xmlns="http://www.w3.org/2000/svg">
<path d="M8.77888 0C3.95778 0 -0.00390625 4.23855 -0.00390625 9.40945V22.5905C-0.00390625 27.7556 3.95235 32 8.77888 32H21.0821C25.9032 32 29.8649 27.7615 29.8649 22.5905V9.41091C29.8649 4.24436 25.9086 0 21.0821 0H8.77888ZM8.77888 2.90909H21.0821C21.8792 2.90794 22.6687 3.0753 23.4053 3.40156C24.1419 3.72783 24.8112 4.2066 25.3748 4.81044C25.9385 5.41429 26.3853 6.13134 26.6899 6.92051C26.9944 7.70969 27.1506 8.55549 27.1496 9.40945V22.5905C27.1506 23.4445 26.9944 24.2903 26.6899 25.0795C26.3853 25.8687 25.9385 26.5857 25.3748 27.1896C24.8112 27.7934 24.1419 28.2722 23.4053 28.5984C22.6687 28.9247 21.8792 29.0921 21.0821 29.0909H8.78024C7.98304 29.0923 7.19342 28.925 6.45664 28.5989C5.71987 28.2727 5.05041 27.7939 4.48664 27.1901C3.92287 26.5862 3.47586 25.8691 3.17124 25.0798C2.86662 24.2906 2.71037 23.4446 2.71144 22.5905V9.41091C2.71019 8.55682 2.86626 7.71087 3.17072 6.92152C3.47518 6.13218 3.92203 5.41495 4.48568 4.81096C5.04932 4.20696 5.71868 3.72806 6.45539 3.4017C7.1921 3.07534 7.98168 2.90794 8.77888 2.90909ZM22.9489 6.09164C22.7872 6.09087 22.6269 6.12443 22.4773 6.19038C22.3278 6.25634 22.1919 6.35338 22.0775 6.4759C21.9632 6.59842 21.8726 6.744 21.811 6.90424C21.7495 7.06447 21.7181 7.23618 21.7189 7.40945C21.7189 8.14255 22.2646 8.72727 22.9489 8.72727C23.1108 8.72824 23.2712 8.69482 23.4209 8.62895C23.5706 8.56308 23.7067 8.46607 23.8212 8.34353C23.9357 8.22098 24.0264 8.07534 24.088 7.91501C24.1497 7.75468 24.181 7.58285 24.1803 7.40945C24.181 7.23606 24.1497 7.06423 24.088 6.9039C24.0264 6.74357 23.9357 6.59792 23.8212 6.47538C23.7067 6.35284 23.5706 6.25583 23.4209 6.18996C23.2712 6.12409 23.1108 6.09067 22.9489 6.09164ZM14.9305 7.27273C10.4502 7.27273 6.78446 11.2 6.78446 16C6.78446 20.8 10.4502 24.7273 14.9305 24.7273C19.4108 24.7273 23.0765 20.8 23.0765 16C23.0765 11.2 19.4108 7.27273 14.9305 7.27273ZM14.9305 10.1818C17.9486 10.1818 20.3612 12.7665 20.3612 16C20.3612 19.2335 17.9486 21.8182 14.9305 21.8182C11.9124 21.8182 9.49981 19.2335 9.49981 16C9.49981 12.7665 11.9124 10.1818 14.9305 10.1818Z" fill="white"/>
</svg>
