<svg width="25" height="27" viewBox="0 0 25 27" fill="none" xmlns="http://www.w3.org/2000/svg">
<path d="M3.83501 25.9993C5.40075 25.9993 6.67003 24.7557 6.67003 23.2216C6.67003 21.6875 5.40075 20.4438 3.83501 20.4438C2.26928 20.4438 1 21.6875 1 23.2216C1 24.7557 2.26928 25.9993 3.83501 25.9993Z" stroke="#AE2316" stroke-width="2" stroke-linecap="round" stroke-linejoin="round"/>
<path d="M19.4288 25.9993C20.9945 25.9993 22.2638 24.7557 22.2638 23.2216C22.2638 21.6875 20.9945 20.4438 19.4288 20.4438C17.863 20.4438 16.5938 21.6875 16.5938 23.2216C16.5938 24.7557 17.863 25.9993 19.4288 25.9993Z" stroke="#AE2316" stroke-width="2" stroke-linecap="round" stroke-linejoin="round"/>
<path d="M19.4276 20.4441H3.83501V1H1" stroke="#AE2316" stroke-width="2" stroke-linecap="round" stroke-linejoin="round"/>
<path d="M3.83594 3.77734L23.681 5.16621L22.2635 14.8883H3.83594" stroke="#AE2316" stroke-width="2" stroke-linecap="round" stroke-linejoin="round"/>
</svg>
