<svg width="200" height="120" viewBox="0 0 200 120" fill="none" xmlns="http://www.w3.org/2000/svg">
<g clip-path="url(#clip0_699_3609)">
<path fill-rule="evenodd" clip-rule="evenodd" d="M34.3959 84.4991C32.5698 84.0469 26.2176 80.9891 24.4733 79.9895C20.4632 77.6892 21.7844 60.2264 23.0498 55.1996C23.8001 52.2197 25.2274 46.7129 27.0376 44.7776C28.1868 45.6233 31.2021 50.0102 32.5754 51.5728C34.5949 53.8713 37.0076 56.086 38.6366 58.1648C38.2182 59.7283 36.9109 61.8763 36.1838 63.7926C32.8896 72.4739 33.984 76.3151 34.3959 84.4991ZM44.206 57.0839C45.6136 54.5259 49.4378 50.446 51.5261 48.4848C53.3187 46.8011 58.6054 42.1487 60.8648 41.4613C62.5226 45.4011 66.5662 48.426 68.488 50.9562C61.7137 54.743 56.9904 59.4844 53.0044 64.5683C51.4006 63.6439 45.317 58.5548 44.206 57.0839ZM29.0283 41.2235C30.3486 35.325 46.9841 20.9727 54.4939 19.321C54.1016 28.5963 56.6817 31.5019 58.7254 38.3075C52.6353 41.6437 45.5625 48.1847 41.3776 54.1083C39.2251 53.5349 30.5996 43.3983 29.0283 41.2235ZM58.3386 17.7938C65.138 14.5882 75.8769 14.4066 84.1826 14.8312C82.7099 18.4986 82.1659 24.8355 82.1883 28.7892C77.8062 29.3962 66.5336 33.6404 62.6062 35.8559C61.1874 32.3096 57.5947 22.3632 58.3386 17.7938ZM85.5559 27.831C85.37 23.4372 86.6986 19.4715 87.4675 15.5585C94.4065 15.3907 106.37 21.6437 110.74 24.6513C115.764 28.1095 119.189 31.4146 122.88 36.0678C124.024 37.5119 125.084 39.5069 126.268 40.5334C124.171 34.0019 114.744 25.184 108.868 20.9831C92.2289 9.08924 68.1338 7.23867 49.078 15.9407C39.3693 20.3743 33.6093 25.4962 28.2956 31.9386C9.2603 55.018 13.7939 89.2051 39.1006 107.15C44.8838 111.251 56.7022 117.371 65.7824 117.617C65.0571 117.289 55.7296 114.917 55.4814 114.204C55.4395 114.084 55.3103 114.096 55.2303 114.036C57.0573 112.785 63.0023 111.672 65.3733 108.226C62.9781 108.543 56.3619 111.334 50.654 111.474C45.0065 111.613 29.2207 96.2555 25.5091 85.2039C27.575 85.7963 30.992 87.9089 33.5331 88.9085C35.2736 89.5934 36.0258 89.788 36.2898 90.2359L39.7161 96.0471L38.0453 90.8127C45.1143 92.2032 49.2621 94.8494 59.6523 94.9116C58.5329 93.7849 45.861 89.5251 42.2209 88.0247C40.6626 87.3822 37.7524 86.4587 36.9054 85.3016C35.5358 83.6344 36.8356 74.3132 37.3275 72.0026C37.903 69.3028 39.081 66.252 40.2591 63.618L41.7653 61.22L50.839 68.2582C50.3174 70.9563 45.7447 80.1512 47.4695 86.1828C47.9474 85.1027 48.1715 83.0861 48.5211 81.8167C49.4387 78.4744 51.4508 72.4376 53.3921 70.0431C55.1392 70.5204 57.0062 71.9965 58.769 72.9858C60.5338 73.9751 62.5895 75.0552 64.2324 75.836C66.7837 77.0476 73.2596 79.9203 76.3641 80.2688L75.002 79.1472C74.5976 78.9033 73.9737 78.6154 73.5246 78.3663C72.6859 77.9037 71.8259 77.3597 70.9091 76.8245L60.3413 70.0924C58.8369 69.0322 56.7431 67.9789 55.5966 66.4561C57.8681 62.2413 66.0938 54.4248 70.4443 52.5301C72.2387 53.4839 74.1838 55.0751 76.2126 55.7928L72.486 51.3168C73.9941 50.0699 76.4608 49.2864 78.3697 47.9504C75.2819 48.1908 73.7942 49.2008 71.2197 49.7975C69.759 48.7062 64.7801 41.239 64.2501 38.9621C67.1621 37.2205 78.3948 31.4033 82.0711 30.728C82.3389 32.6806 83.1339 35.7236 83.7298 37.441C84.4755 39.5891 85.1784 41.4232 86.3341 43.2625C86.5508 42.9201 86.4476 43.4355 86.5257 42.5699C86.588 41.8755 85.0083 34.8321 85.5001 29.3253L92.4456 26.7458L85.5559 27.831Z" fill="white"/>
<path fill-rule="evenodd" clip-rule="evenodd" d="M8.77916 18.8756L3.38646 33.9871C-4.48038 60.9838 1.20148 90.9285 24.2981 108.652C30.6559 113.531 43.802 120.17 54.4414 119.996C43.8661 119.325 31.9111 112.841 25.8573 107.923C18.6134 102.04 12.9966 94.8095 8.84889 85.2116C-0.117872 64.461 4.38876 39.3823 14.0082 21.3687L18.4935 22.7661L16.023 12.5923L5.59747 17.2196L8.77916 18.8756Z" fill="#AE1F16"/>
<path fill-rule="evenodd" clip-rule="evenodd" d="M109.355 3.16154C107.547 3.25406 102.769 2.17226 100.603 1.90592C90.3193 0.642511 81.2772 0.413352 71.1194 1.8817C59.4507 3.56797 48.7174 7.34694 40.183 12.3253C24.1239 21.6923 9.32275 39.4154 11.3924 63.8438C11.5998 56.9941 11.8015 53.2817 13.6815 47.1359C22.8994 16.9984 57.1737 2.7257 89.847 5.51885C93.9454 5.86994 104.332 6.88862 107.337 8.42183L106.992 12.2527L116.994 8.76859L110.751 0L109.355 3.16154Z" fill="#AE1F16"/>
<path d="M99.4041 87.8746C107.207 87.8746 113.246 82.0756 113.246 74.2349C113.246 66.504 107.207 60.8511 99.4041 60.8511C91.6395 60.8511 85.5625 66.5766 85.5625 74.3084C85.5625 82.1491 91.6395 87.8746 99.4041 87.8746ZM165.368 55.1299C166.535 55.1299 167.48 56.0102 167.48 57.0955C167.48 58.1807 166.535 59.0602 165.368 59.0602C164.201 59.0602 163.256 58.1807 163.256 57.0955C163.256 56.0102 164.201 55.1299 165.368 55.1299ZM168.857 87.6195V87.4007C167.877 87.0358 167.329 85.9056 167.329 84.8108V63.8777C167.329 62.7838 167.877 61.6536 168.857 61.2886V61.0699H161.879V61.2886C162.859 61.6536 163.368 62.7838 163.368 63.8777V84.8108C163.368 85.9056 162.859 87.0358 161.879 87.4007V87.6195H168.857ZM99.4041 87.3644C94.1499 87.3644 90.0319 83.0605 90.0319 74.2712C90.0319 65.628 94.1499 61.3613 99.4041 61.3613C104.697 61.3613 108.814 65.628 108.814 74.2712C108.775 83.0605 104.697 87.3644 99.4041 87.3644ZM125.496 87.8746C131.103 87.8746 134.75 85.1031 134.75 80.6176C134.75 71.8646 120.32 72.9585 120.32 66.5766C120.32 64.0965 122.359 62.4552 126.163 62.4552C130.751 62.4552 133.652 65.1541 133.652 68.473H133.966C133.966 63.9875 130.868 60.8511 125.261 60.8511C120.32 60.8511 116.752 63.3675 116.752 67.6342C116.752 76.1313 131.182 74.5635 131.182 81.6017C131.182 84.5194 128.947 86.2696 124.869 86.2696C119.654 86.2696 116.203 83.5716 116.203 79.9241H115.928C115.928 84.4467 119.3 87.8746 125.496 87.8746ZM136.805 61.0699L135.786 66.248H135.982C137.041 64.0965 139.198 61.6536 142.452 61.6536H145.785V84.8108C145.746 85.9056 145.236 87.0358 144.256 87.4007V87.6195H151.274V87.4007C150.294 87.0358 149.745 85.9056 149.745 84.8108V61.6536H153.156C156.411 61.6536 158.607 64.0965 159.666 66.248H159.823L158.842 61.0699H136.805ZM198.408 63.8777C198.408 62.7838 198.917 61.6536 199.898 61.2886V61.0699H195.428L186.005 80.244L177.932 61.0699H172.639V61.2886C173.619 61.6536 174.128 62.7838 174.128 63.8777V84.5194C174.128 85.5043 173.541 86.6709 172.482 87.4007V87.6195H176.56V87.4007C175.541 86.7072 174.795 85.5043 174.795 84.5194V63.4038L184.32 85.2769H184.555L194.448 64.8627V84.8108C194.448 85.9047 193.937 87.0358 192.957 87.4007V87.6195H199.937V87.4007C198.957 87.0358 198.408 85.9056 198.408 84.8108V63.8777Z" fill="#AE1F16"/>
<path d="M97.0267 94.7415L96.6595 97.4447H95.4684L95.1532 95.2794C94.547 95.1601 94.0152 95.1004 93.5605 95.1004C92.0664 95.1004 90.9051 95.4913 90.0767 96.2721C89.2473 97.0539 88.8336 98.2533 88.8336 99.8712C88.8336 101.315 89.1887 102.515 89.9009 103.469C90.6131 104.425 91.7103 104.902 93.1923 104.902C94.0561 104.902 94.9431 104.723 95.8543 104.365V101.548L93.9278 101.321V100.587H98.2355V101.402L97.4293 101.5V104.919C96.0877 105.548 94.6456 105.863 93.1049 105.863C91.238 105.863 89.7438 105.343 88.6234 104.3C87.5021 103.258 86.9424 101.826 86.9424 100.002C86.9424 98.1339 87.543 96.6907 88.7452 95.6703C89.9474 94.6498 91.5355 94.1396 93.5075 94.1396C94.6986 94.1396 95.871 94.3403 97.0267 94.7415ZM112.993 94.3022V95.116L111.295 95.3278V104.756H115.969L116.617 102.395H117.703V105.701H107.794V104.968L109.491 104.756V95.2465L107.794 95.0347V94.3022H112.993ZM138.904 100.002C138.927 101.684 138.373 103.087 137.241 104.211C136.108 105.334 134.649 105.886 132.864 105.863C130.996 105.863 129.525 105.312 128.451 104.211C127.377 103.109 126.841 101.705 126.841 100.002C126.841 98.2974 127.395 96.8939 128.504 95.7922C129.613 94.6905 131.066 94.1396 132.864 94.1396C134.743 94.1396 136.22 94.6905 137.294 95.7922C138.367 96.8939 138.904 98.2974 138.904 100.002ZM128.732 99.9197C128.72 101.288 129.082 102.463 129.817 103.445C130.553 104.428 131.597 104.914 132.951 104.902C134.154 104.902 135.128 104.453 135.875 103.552C136.622 102.651 136.995 101.494 136.995 100.083C137.007 98.7151 136.645 97.5399 135.91 96.5575C135.175 95.5751 134.13 95.0891 132.776 95.1004C131.574 95.1004 130.599 95.5501 129.853 96.452C129.105 97.3522 128.732 98.5084 128.732 99.9197ZM159.597 102.639C159.597 103.605 159.253 104.36 158.564 104.902C157.887 105.435 157.012 105.701 155.938 105.701H148.654V104.887L149.985 104.723V95.2794L148.654 95.116V94.3022H155.605C156.598 94.3022 157.403 94.5547 158.022 95.0589C158.64 95.5639 158.95 96.2341 158.95 97.0703C158.95 97.7327 158.763 98.2835 158.389 98.7228C158.015 99.163 157.502 99.4804 156.849 99.6758C157.689 99.8168 158.358 100.153 158.853 100.685C159.35 101.218 159.597 101.869 159.597 102.639ZM151.789 95.2465V99.2849H154.747C155.459 99.2849 156.031 99.1085 156.464 98.7557C156.895 98.4029 157.111 97.9065 157.111 97.2657C157.111 96.6466 156.892 96.1554 156.454 95.7922C156.017 95.4281 155.448 95.2465 154.747 95.2465H151.789ZM157.759 102.493C157.759 101.798 157.517 101.247 157.033 100.84C156.548 100.433 155.909 100.229 155.115 100.229H151.789V104.74H155.115C155.909 104.74 156.548 104.542 157.033 104.146C157.517 103.75 157.759 103.199 157.759 102.493ZM175.511 94.3022L179.835 104.854L180.816 104.968V105.701H176.737V104.887L177.857 104.74L176.859 102.184H172.132L171.151 104.723L172.412 104.887V105.701H168.753V104.968L169.559 104.87L173.883 94.3022H175.511ZM174.496 96.0931L172.464 101.239H176.526L174.496 96.0931ZM195.241 94.3022V95.116L193.543 95.3278V104.756H198.218L198.865 102.395H199.951V105.701H190.042V104.968L191.739 104.756V95.2465L190.042 95.0347V94.3022H195.241Z" fill="white"/>
</g>
<defs>
<clipPath id="clip0_699_3609">
<rect width="200" height="120" fill="white"/>
</clipPath>
</defs>
</svg>
