<svg width="28" height="27" viewBox="0 0 28 27" fill="none" xmlns="http://www.w3.org/2000/svg">
<path d="M13.2208 1L26.4067 13.9195C26.7671 14.3143 26.9663 14.8253 26.9663 15.355C26.9663 15.8846 26.7671 16.3957 26.4067 16.7905L17.6161 25.4035C17.2132 25.7566 16.6916 25.9518 16.151 25.9518C15.6104 25.9518 15.0888 25.7566 14.6859 25.4035L1.5 12.484V6.742C1.5 5.21913 2.11743 3.75863 3.21647 2.68179C4.31551 1.60496 5.80613 1 7.36041 1H13.2208Z" stroke="#AE2316" stroke-width="2" stroke-linecap="round" stroke-linejoin="round"/>
<path d="M10.2896 12.4842C11.9079 12.4842 13.2198 11.1988 13.2198 9.61323C13.2198 8.02762 11.9079 6.74223 10.2896 6.74223C8.67127 6.74223 7.35938 8.02762 7.35938 9.61323C7.35938 11.1988 8.67127 12.4842 10.2896 12.4842Z" stroke="#AE2316" stroke-width="2" stroke-linecap="round" stroke-linejoin="round"/>
</svg>
