<svg width="34" height="40" viewBox="0 0 34 40" fill="none" xmlns="http://www.w3.org/2000/svg">
<path d="M31.811 21.9041L22.391 20.5134L18.1787 11.8408C18.0745 11.6256 17.8589 11.4894 17.6222 11.4894C17.3856 11.4894 17.17 11.6256 17.0658 11.8408L12.8539 20.5134L3.43394 21.9041C3.20059 21.9386 3.00614 22.105 2.9329 22.3333C2.85967 22.5616 2.92091 22.8126 3.09013 22.9799L9.90562 29.7304L8.29701 39.2626C8.25688 39.4993 8.35287 39.7385 8.54401 39.8798C8.73557 40.0206 8.98878 40.0391 9.19772 39.9277L17.6218 35.4268L26.0472 39.9277C26.1382 39.9761 26.2371 40 26.336 40C26.4646 40 26.5925 39.9592 26.7009 39.8798C26.892 39.7385 26.9876 39.4993 26.9479 39.2626L25.3376 29.7304L32.1539 22.9799C32.3232 22.8126 32.384 22.5616 32.3112 22.3333C32.2388 22.105 32.0443 21.9386 31.811 21.9041ZM24.2387 29.0585C24.0923 29.2036 24.0257 29.4121 24.06 29.6168L25.5126 38.2162L17.9114 34.156C17.7302 34.0597 17.5147 34.0597 17.3339 34.156L9.73392 38.2162L11.1849 29.6168C11.2192 29.4121 11.1526 29.2036 11.0062 29.0585L4.85803 22.969L13.3562 21.7145C13.5581 21.6846 13.7331 21.5556 13.8233 21.3697L17.6231 13.546L21.4233 21.3697C21.5134 21.5556 21.6885 21.6846 21.8904 21.7145L30.3885 22.969L24.2387 29.0585Z" fill="#AE2316"/>
<path d="M6.86638 14.8936C7.09065 14.8936 7.30578 14.7623 7.40718 14.5385C7.54676 14.2307 7.41752 13.8641 7.11889 13.72L0.849145 10.6959C0.551306 10.5527 0.195807 10.6857 0.0562321 10.9935C-0.0833429 11.3014 0.045893 11.668 0.344528 11.8121L6.61427 14.8362C6.69579 14.8752 6.78168 14.8936 6.86638 14.8936Z" fill="#AE2316"/>
<path d="M33.9437 10.9935C33.8037 10.6857 33.4482 10.5527 33.1508 10.6959L26.8809 13.72C26.5823 13.8645 26.4534 14.2307 26.5926 14.5385C26.694 14.7623 26.9092 14.8936 27.1334 14.8936C27.2181 14.8936 27.304 14.8752 27.3855 14.8357L33.6554 11.8116C33.9544 11.668 34.0833 11.3014 33.9437 10.9935Z" fill="#AE2316"/>
<path d="M17.6219 8.51064C17.9653 8.51064 18.2439 8.22964 18.2439 7.88341V0.627227C18.2439 0.28058 17.9653 0 17.6219 0C17.2786 0 17 0.28058 17 0.627227V7.88341C17 8.22964 17.2786 8.51064 17.6219 8.51064Z" fill="#AE2316"/>
</svg>
