<svg width="50" height="24" viewBox="0 0 50 24" fill="none" xmlns="http://www.w3.org/2000/svg">
<path d="M1.48998 0.0177659H7.22843L8.9695 2.25629H2.92903V4.77908H8.82737C9.27745 5.09887 9.50248 5.52525 9.50248 6.05823V10.9794C9.50248 11.24 9.15308 11.4532 8.45428 11.619H3.14223L1.20572 9.54039H6.99747V6.85771H1.59658C0.921466 6.85771 0.583911 6.59122 0.583911 6.05823V0.852771C0.583911 0.414541 0.885934 0.136206 1.48998 0.0177659Z" fill="white"/>
<path d="M10.9078 0H18.9558C19.5125 0.284257 19.7908 0.817239 19.7908 1.59895V6.05823L14.8874 9.13177V6.30696L17.2148 4.79684V2.1497H13.2174V11.7789L10.9078 13.2713V0Z" fill="white"/>
<path d="M21.2144 0.0177659H29.3157C29.825 0.159894 30.0678 0.55667 30.0441 1.20809V11.7256H27.6279V5.79174L23.6305 7.83484V13.218L21.2144 11.8322V6.80441L27.6279 3.34002V1.90097H23.6305V4.10396L21.2144 5.41865V0.0177659Z" fill="white"/>
<path d="M31.4498 0H39.3913C39.9006 0 40.2263 0.444152 40.3684 1.33246V4.38822H37.8634V2.13193H33.8127V9.73581H38.0944L36.2822 11.8677H32.3026C31.8407 11.8677 31.5564 11.4828 31.4498 10.7129V0Z" fill="white"/>
<path d="M41.6143 0H48.0456L49.9998 2.13193H44.066V4.17503H46.6065L48.4187 6.28919H44.066V9.66475H47.9212L49.8577 11.7256H41.6143V0Z" fill="white"/>
<path d="M0.40625 17.3999H1.64099V22.3122H3.54196L4.66123 23.2627H0.40625V17.3999Z" fill="white"/>
<path d="M5.76814 17.3999H9.8188C10.0735 17.471 10.1949 17.6694 10.183 17.9951V23.2538H8.97491V20.2869L6.97623 21.3084V24L5.76814 23.3071V20.7932L8.97491 19.061V18.3415H6.97623V19.443L5.76814 20.1003V17.3999Z" fill="white"/>
<path d="M10.9392 17.3999H14.75C15.0165 17.3999 15.2001 17.5272 15.3007 17.7819V19.5229L14.297 20.2869L15.3007 20.8732V23.2538H12.7957V22.2234H14.1282V20.9442L12.1117 20.1714V23.2894L10.9392 24V17.3999ZM12.1117 18.4215V20.3491L14.1282 19.3719V18.4215H12.1117Z" fill="white"/>
<path d="M16.5174 17.3999H19.3866L20.2571 18.5192H17.2369V19.7806H20.1861C20.4111 19.9405 20.5236 20.1536 20.5236 20.4201V22.8807C20.5236 23.011 20.3489 23.1176 19.9995 23.2005H17.3435L16.3752 22.1612H19.2711V20.8199H16.5707C16.2331 20.8199 16.0643 20.6866 16.0643 20.4201V17.8174C16.0643 17.5983 16.2154 17.4591 16.5174 17.3999Z" fill="white"/>
</svg>
