<svg width="14" height="14" viewBox="0 0 14 14" fill="none" xmlns="http://www.w3.org/2000/svg">
<path id="Path" d="M12.9095 11.4696L12.9079 11.4712V11.4672L12.2989 12.0722C11.5113 12.8698 10.3642 13.198 9.27388 12.9377C8.17542 12.6436 7.13118 12.1756 6.18076 11.5514C5.29777 10.987 4.47947 10.3274 3.74071 9.58409C3.06098 8.90933 2.45031 8.16842 1.91767 7.37242C1.33508 6.51591 0.873958 5.58286 0.5474 4.59981C0.173045 3.44495 0.483263 2.17774 1.34875 1.32639L2.06191 0.613224C2.2602 0.41405 2.58239 0.413346 2.78151 0.611628L2.78311 0.613224L5.03483 2.86494C5.234 3.06323 5.23471 3.38542 5.03643 3.58455L5.03483 3.58614L3.71264 4.90834C3.33326 5.28358 3.28555 5.87988 3.60047 6.31068C4.07868 6.96699 4.60789 7.58456 5.18311 8.15776C5.82444 8.80186 6.52164 9.38778 7.26655 9.90868C7.69697 10.2089 8.2805 10.1583 8.65283 9.78848L9.93094 8.49032C10.1292 8.29115 10.4514 8.29045 10.6505 8.48873L10.6521 8.49032L12.9079 10.7501C13.1071 10.9483 13.1078 11.2705 12.9095 11.4696Z" fill="white"/>
</svg>
