<svg width="3411" height="1987" viewBox="0 0 3411 1987" fill="none" xmlns="http://www.w3.org/2000/svg">
<path fill-rule="evenodd" clip-rule="evenodd" d="M552.619 1432.3C523.238 1425.24 421.034 1377.46 392.97 1361.84C328.449 1325.9 349.706 1053.04 370.066 974.497C382.139 927.936 405.102 841.893 434.228 811.653C452.718 824.868 501.233 893.413 523.328 917.829C555.82 953.743 594.641 988.347 620.85 1020.83C614.118 1045.26 593.085 1078.82 581.387 1108.76C528.384 1244.41 545.992 1304.43 552.619 1432.3ZM710.459 1003.94C733.107 963.971 794.637 900.223 828.236 869.578C857.078 843.271 942.139 770.577 978.491 759.836C1005.16 821.395 1070.22 868.659 1101.15 908.195C992.149 967.363 916.154 1041.45 852.022 1120.88C826.216 1106.44 728.335 1026.92 710.459 1003.94ZM466.257 756.12C487.5 663.956 755.158 439.701 875.987 413.894C869.674 558.821 911.187 604.221 944.069 710.558C846.083 762.687 732.285 864.89 664.951 957.445C630.32 948.487 491.539 790.102 466.257 756.12ZM937.845 390.032C1047.25 339.944 1220.03 337.106 1353.66 343.741C1329.97 401.044 1321.22 500.058 1321.58 561.834C1251.07 571.319 1069.7 637.635 1006.51 672.252C983.682 616.841 925.878 461.428 937.845 390.032ZM1375.76 546.863C1372.77 478.21 1394.15 416.245 1406.52 355.104C1518.16 352.483 1710.65 450.186 1780.96 497.18C1861.8 551.214 1916.9 602.856 1976.29 675.563C1994.7 698.127 2011.74 729.299 2030.8 745.338C1997.06 643.283 1845.39 505.504 1750.84 439.863C1483.13 254.022 1095.45 225.107 788.847 361.076C632.638 430.351 539.963 510.381 454.469 611.044C148.199 971.66 221.143 1505.83 628.315 1786.22C721.364 1850.3 911.516 1945.93 1057.61 1949.76C1045.94 1944.64 895.869 1907.58 891.874 1896.45C891.201 1894.57 889.122 1894.76 887.835 1893.82C917.231 1874.27 1012.88 1856.88 1051.03 1803.04C1012.49 1807.98 906.041 1851.6 814.204 1853.79C723.339 1855.95 469.354 1616 409.635 1443.32C442.875 1452.57 497.852 1485.58 538.737 1501.2C566.741 1511.9 578.843 1514.94 583.092 1521.94L638.218 1612.74L611.336 1530.95C725.074 1552.68 791.809 1594.03 958.983 1595C940.972 1577.39 737.087 1510.83 678.52 1487.39C653.447 1477.35 606.623 1462.92 592.995 1444.84C570.96 1418.79 591.873 1273.15 599.787 1237.04C609.047 1194.86 628.001 1147.19 646.955 1106.03L671.189 1068.57L817.181 1178.54C808.788 1220.7 735.217 1364.37 762.967 1458.61C770.656 1441.73 774.262 1410.22 779.886 1390.39C794.652 1338.17 827.024 1243.84 858.26 1206.43C886.369 1213.89 916.408 1236.95 944.772 1252.41C973.165 1267.86 1006.24 1284.74 1032.67 1296.94C1073.72 1315.87 1177.92 1360.76 1227.87 1366.2L1205.95 1348.68C1199.45 1344.87 1189.41 1340.37 1182.18 1336.48C1168.69 1329.25 1154.85 1320.75 1140.1 1312.39L970.069 1207.2C945.864 1190.63 912.175 1174.17 893.729 1150.38C930.276 1084.52 1062.62 962.391 1132.62 932.786C1161.49 947.69 1192.79 972.552 1225.43 983.766L1165.47 913.829C1189.74 894.345 1229.42 882.104 1260.14 861.228C1210.46 864.984 1186.52 880.766 1145.1 890.089C1121.6 873.037 1041.49 756.363 1032.96 720.787C1079.81 693.574 1260.54 602.68 1319.69 592.127C1324 622.637 1336.79 670.185 1346.38 697.019C1358.38 730.583 1369.69 759.241 1388.28 787.981C1391.77 782.63 1390.11 790.683 1391.36 777.158C1392.36 766.308 1366.95 656.254 1374.86 570.211L1486.61 529.906L1375.76 546.863Z" fill="white"/>
<path fill-rule="evenodd" clip-rule="evenodd" d="M140.451 406.935L53.6852 643.053C-72.8886 1064.88 18.5299 1532.76 390.143 1809.7C492.437 1885.92 703.952 1989.66 875.135 1986.95C704.984 1976.46 512.633 1875.15 415.23 1798.31C298.68 1706.38 208.308 1593.4 141.573 1443.44C-2.69783 1119.21 69.8117 727.353 224.584 445.889L296.75 467.724L257.002 308.758L89.2592 381.06L140.451 406.935Z" fill="#CC3B43"/>
<path fill-rule="evenodd" clip-rule="evenodd" d="M1758.67 161.399C1729.59 162.845 1652.71 145.942 1617.85 141.78C1452.4 122.039 1306.92 118.459 1143.48 141.402C955.739 167.75 783.044 226.796 645.729 304.583C387.346 450.943 149.203 727.867 182.503 1109.56C185.839 1002.53 189.086 944.528 219.334 848.5C367.644 377.601 919.102 154.589 1444.8 198.232C1510.74 203.718 1677.86 219.635 1726.21 243.591L1720.66 303.448L1881.58 249.009L1781.14 112L1758.67 161.399Z" fill="#CC3B43"/>
<path d="M1598.57 1485.04C1724.11 1485.04 1821.27 1394.43 1821.27 1271.92C1821.27 1151.12 1724.11 1062.8 1598.57 1062.8C1473.64 1062.8 1375.87 1152.26 1375.87 1273.07C1375.87 1395.58 1473.64 1485.04 1598.57 1485.04ZM2659.9 973.402C2678.67 973.402 2693.89 987.157 2693.89 1004.11C2693.89 1021.07 2678.67 1034.81 2659.9 1034.81C2641.12 1034.81 2625.91 1021.07 2625.91 1004.11C2625.91 987.157 2641.12 973.402 2659.9 973.402ZM2716.04 1481.05V1477.63C2700.27 1471.93 2691.45 1454.27 2691.45 1437.17V1110.09C2691.45 1093 2700.27 1075.34 2716.04 1069.63V1066.21H2603.75V1069.63C2619.52 1075.34 2627.72 1093 2627.72 1110.09V1437.17C2627.72 1454.27 2619.52 1471.93 2603.75 1477.63V1481.05H2716.04ZM1598.57 1477.07C1514.03 1477.07 1447.78 1409.82 1447.78 1272.49C1447.78 1137.44 1514.03 1070.77 1598.57 1070.77C1683.74 1070.77 1749.98 1137.44 1749.98 1272.49C1749.35 1409.82 1683.74 1477.07 1598.57 1477.07ZM2018.38 1485.04C2108.59 1485.04 2167.26 1441.73 2167.26 1371.65C2167.26 1234.88 1935.1 1251.97 1935.1 1152.26C1935.1 1113.51 1967.91 1087.86 2029.11 1087.86C2102.92 1087.86 2149.61 1130.03 2149.61 1181.89H2154.65C2154.65 1111.8 2104.8 1062.8 2014.6 1062.8C1935.1 1062.8 1877.69 1102.12 1877.69 1168.78C1877.69 1301.55 2109.86 1277.05 2109.86 1387.02C2109.86 1432.61 2073.9 1459.96 2008.29 1459.96C1924.38 1459.96 1868.86 1417.8 1868.86 1360.81H1864.43C1864.43 1431.48 1918.69 1485.04 2018.38 1485.04ZM2200.34 1066.21L2183.94 1147.12H2187.1C2204.12 1113.51 2238.83 1075.34 2291.19 1075.34H2344.82V1437.17C2344.19 1454.27 2335.98 1471.93 2320.21 1477.63V1481.05H2433.14V1477.63C2417.37 1471.93 2408.53 1454.27 2408.53 1437.17V1075.34H2463.42C2515.79 1075.34 2551.11 1113.51 2568.15 1147.12H2570.68L2554.9 1066.21H2200.34ZM3191.49 1110.09C3191.49 1093 3199.69 1075.34 3215.47 1069.63V1066.21H3143.54L2991.94 1365.81L2862.05 1066.21H2776.88V1069.63C2792.65 1075.34 2800.85 1093 2800.85 1110.09V1432.61C2800.85 1448 2791.39 1466.23 2774.35 1477.63V1481.05H2839.97V1477.63C2823.57 1466.8 2811.57 1448 2811.57 1432.61V1102.68L2964.82 1444.45H2968.61L3127.78 1125.48V1437.17C3127.78 1454.26 3119.56 1471.93 3103.8 1477.63V1481.05H3216.1V1477.63C3200.33 1471.93 3191.49 1454.27 3191.49 1437.17V1110.09Z" fill="#CC3B43"/>
<path d="M1560.32 1592.34L1554.41 1634.57H1535.24L1530.17 1600.74C1520.42 1598.88 1511.86 1597.94 1504.55 1597.94C1480.51 1597.94 1461.82 1604.05 1448.49 1616.25C1435.15 1628.47 1428.49 1647.21 1428.49 1672.49C1428.49 1695.04 1434.21 1713.79 1445.67 1728.71C1457.13 1743.64 1474.78 1751.1 1498.62 1751.1C1512.52 1751.1 1526.79 1748.3 1541.45 1742.71V1698.69L1510.46 1695.13V1683.68H1579.76V1696.4L1566.79 1697.93V1751.36C1545.21 1761.19 1522.01 1766.11 1497.22 1766.11C1467.18 1766.11 1443.14 1757.98 1425.11 1741.7C1407.07 1725.41 1398.06 1703.02 1398.06 1674.53C1398.06 1645.34 1407.73 1622.79 1427.07 1606.85C1446.41 1590.9 1471.97 1582.93 1503.69 1582.93C1522.86 1582.93 1541.72 1586.07 1560.32 1592.34ZM1817.2 1585.47V1598.19L1789.89 1601.5V1748.82H1865.09L1875.52 1711.93H1892.99V1763.57H1733.55V1752.13L1760.87 1748.82V1600.23L1733.55 1596.92V1585.47H1817.2ZM2234.1 1674.53C2234.47 1700.81 2225.56 1722.74 2207.34 1740.29C2189.12 1757.84 2165.64 1766.46 2136.92 1766.11C2106.87 1766.11 2083.2 1757.5 2065.92 1740.29C2048.65 1723.08 2040.01 1701.15 2040.01 1674.53C2040.01 1647.9 2048.93 1625.97 2066.78 1608.75C2084.61 1591.54 2107.99 1582.93 2136.92 1582.93C2167.16 1582.93 2190.91 1591.54 2208.19 1608.75C2225.47 1625.97 2234.1 1647.9 2234.1 1674.53ZM2070.44 1673.24C2070.25 1694.62 2076.07 1712.98 2087.9 1728.33C2099.73 1743.68 2116.53 1751.28 2138.33 1751.1C2157.67 1751.1 2173.35 1744.07 2185.36 1729.99C2197.39 1715.92 2203.39 1697.85 2203.39 1675.8C2203.58 1654.42 2197.76 1636.06 2185.93 1620.71C2174.1 1605.36 2157.3 1597.77 2135.5 1597.94C2116.16 1597.94 2100.48 1604.97 2088.47 1619.06C2076.44 1633.13 2070.44 1651.19 2070.44 1673.24ZM2567.04 1715.74C2567.04 1730.83 2561.51 1742.63 2550.42 1751.1C2539.53 1759.42 2525.45 1763.57 2508.18 1763.57H2390.98V1750.86L2412.39 1748.3V1600.74L2390.98 1598.19V1585.47H2502.82C2518.78 1585.47 2531.74 1589.42 2541.7 1597.3C2551.65 1605.19 2556.63 1615.66 2556.63 1628.72C2556.63 1639.07 2553.62 1647.68 2547.61 1654.54C2541.6 1661.42 2533.34 1666.38 2522.82 1669.43C2536.35 1671.64 2547.1 1676.89 2555.08 1685.2C2563.06 1693.53 2567.04 1703.7 2567.04 1715.74ZM2441.41 1600.23V1663.33H2489.01C2500.47 1663.33 2509.67 1660.57 2516.63 1655.06C2523.57 1649.55 2527.04 1641.79 2527.04 1631.78C2527.04 1622.1 2523.53 1614.43 2516.48 1608.75C2509.45 1603.06 2500.29 1600.23 2489.01 1600.23H2441.41ZM2537.47 1713.46C2537.47 1702.59 2533.58 1693.99 2525.78 1687.62C2517.99 1681.27 2507.7 1678.08 2494.94 1678.08H2441.41V1748.56H2494.94C2507.7 1748.56 2517.99 1745.47 2525.78 1739.28C2533.58 1733.09 2537.47 1724.48 2537.47 1713.46ZM2823.09 1585.47L2892.67 1750.34L2908.45 1752.13V1763.57H2842.81V1750.86L2860.84 1748.56L2844.78 1708.62H2768.73L2752.95 1748.3L2773.23 1750.86V1763.57H2714.35V1752.13L2727.32 1750.6L2796.9 1585.47H2823.09ZM2806.76 1613.46L2774.07 1693.86H2839.43L2806.76 1613.46ZM3140.54 1585.47V1598.19L3113.22 1601.5V1748.82H3188.44L3198.85 1711.93H3216.32V1763.57H3056.88V1752.13L3084.2 1748.82V1600.23L3056.88 1596.92V1585.47H3140.54Z" fill="white"/>
</svg>
