<svg width="90" height="54" viewBox="0 0 90 54" fill="none" xmlns="http://www.w3.org/2000/svg">
<g clip-path="url(#clip0_189_2657)">
<path fill-rule="evenodd" clip-rule="evenodd" d="M15.4807 38.0247C14.659 37.8212 11.8004 36.4452 11.0155 35.9953C9.21097 34.9602 9.80552 27.1019 10.375 24.8399C10.7126 23.4989 11.3548 21.0209 12.1695 20.15C12.6866 20.5306 14.0435 22.5047 14.6615 23.2078C15.5702 24.2422 16.656 25.2387 17.389 26.1742C17.2007 26.8778 16.6125 27.8444 16.2853 28.7067C14.8029 32.6133 15.2953 34.3419 15.4807 38.0247ZM19.8952 25.6878C20.5287 24.5367 22.2496 22.7008 23.1893 21.8182C23.996 21.0606 26.375 18.967 27.3917 18.6576C28.1377 20.4305 29.9573 21.7918 30.8221 22.9304C27.7737 24.6344 25.6482 26.7681 23.8545 29.0558C23.1328 28.6398 20.3952 26.3497 19.8952 25.6878ZM13.0653 18.5506C13.6594 15.8963 21.1454 9.43777 24.5248 8.69451C24.3482 12.8684 25.5093 14.1759 26.4289 17.2384C23.6884 18.7397 20.5057 21.6832 18.6224 24.3488C17.6539 24.0908 13.7724 19.5293 13.0653 18.5506ZM26.2549 8.00729C29.3146 6.56475 34.1472 6.48303 37.8847 6.6741C37.222 8.32444 36.9772 11.176 36.9873 12.9552C35.0153 13.2284 29.9427 15.1383 28.1753 16.1352C27.5369 14.5394 25.9202 10.0635 26.2549 8.00729ZM38.5027 12.524C38.419 10.5468 39.0169 8.76222 39.3629 7.00137C42.4854 6.92587 47.869 9.73974 49.8355 11.0932C52.0965 12.6493 53.6375 14.1366 55.2985 16.2306C55.8136 16.8804 56.2901 17.7782 56.8232 18.2401C55.8797 15.3009 51.6375 11.3329 48.9932 9.44244C41.5056 4.09022 30.6627 3.25746 22.0876 7.17337C17.7187 9.16848 15.1267 11.4733 12.7356 14.3724C4.16967 24.7582 6.20979 40.1424 17.5978 48.2174C20.2002 50.0631 25.5185 52.817 29.6046 52.9275C29.2782 52.78 25.0809 51.7126 24.9692 51.392C24.9503 51.3379 24.8922 51.3433 24.8562 51.3165C25.6783 50.7534 28.3536 50.2526 29.4205 48.7019C28.3427 48.8443 25.3654 50.1004 22.7968 50.1635C20.2555 50.2257 13.1519 43.315 11.4816 38.3418C12.4113 38.6084 13.9489 39.559 15.0924 40.0089C15.8757 40.3171 16.2141 40.4046 16.333 40.6062L17.8748 43.2212L17.1229 40.8658C20.304 41.4915 22.1705 42.6823 26.8461 42.7103C26.3423 42.2032 20.64 40.2863 19.0019 39.6112C18.3007 39.3221 16.9911 38.9065 16.6099 38.3858C15.9936 37.6355 16.5786 33.441 16.7999 32.4012C17.0589 31.1863 17.589 29.8135 18.1191 28.6281L18.7969 27.5491L22.8801 30.7163C22.6454 31.9304 20.5877 36.0681 21.3638 38.7823C21.5789 38.2963 21.6797 37.3888 21.837 36.8176C22.25 35.3135 23.1554 32.597 24.029 31.5194C24.8152 31.7342 25.6553 32.3985 26.4486 32.8437C27.2427 33.2889 28.1678 33.7749 28.9071 34.1263C30.0552 34.6715 32.9694 35.9642 34.3664 36.121L33.7534 35.6163C33.5714 35.5066 33.2907 35.377 33.0886 35.2649C32.7112 35.0567 32.3242 34.8119 31.9117 34.5711L27.1561 31.5416C26.4792 31.0645 25.5369 30.5906 25.021 29.9053C26.0432 28.0086 29.7448 24.4912 31.7025 23.6386C32.51 24.0678 33.3853 24.7838 34.2982 25.1068L32.6213 23.0926C33.2999 22.5315 34.4099 22.1789 35.2689 21.5777C33.8794 21.6859 33.2099 22.1404 32.0514 22.4089C31.3941 21.9178 29.1536 18.5576 28.9151 17.533C30.2255 16.7493 35.2802 14.1316 36.9345 13.8276C37.055 14.7063 37.4128 16.0757 37.681 16.8485C38.0165 17.8151 38.3328 18.6405 38.8529 19.4682C38.9504 19.3141 38.9039 19.546 38.9391 19.1565C38.9671 18.844 38.2563 15.6745 38.4776 13.1965L41.603 12.0357L38.5027 12.524Z" fill="#161616"/>
<path fill-rule="evenodd" clip-rule="evenodd" d="M3.95165 8.49411L1.52493 15.2943C-2.01515 27.4428 0.541692 40.9179 10.9352 48.8937C13.7962 51.0888 19.7119 54.0766 24.4997 53.9984C19.7408 53.6965 14.361 50.7787 11.6368 48.5657C8.37706 45.918 5.84951 42.6644 3.98303 38.3453C-0.0520169 29.0076 1.97597 17.7221 6.30473 9.61599L8.32308 10.2448L7.2114 5.66663L2.51988 7.74891L3.95165 8.49411Z" fill="#CC3B43"/>
<path fill-rule="evenodd" clip-rule="evenodd" d="M49.2094 1.42269C48.3961 1.46433 46.2459 0.977516 45.271 0.857662C40.6435 0.28913 36.5746 0.186008 32.0036 0.846766C26.7527 1.60559 21.9227 3.30612 18.0822 5.54639C10.8556 9.76155 4.19509 17.7369 5.12645 28.7297C5.21975 25.6474 5.31055 23.9768 6.15655 21.2112C10.3046 7.6493 25.728 1.22657 40.431 2.48348C42.2753 2.64147 46.9492 3.09988 48.3015 3.78982L48.1463 5.51371L52.647 3.94587L49.8379 0L49.2094 1.42269Z" fill="#CC3B43"/>
<path d="M44.7326 39.5435C48.2438 39.5435 50.9613 36.9339 50.9613 33.4056C50.9613 29.9267 48.2438 27.3829 44.7326 27.3829C41.2386 27.3829 38.5039 29.9594 38.5039 33.4387C38.5039 36.967 41.2386 39.5435 44.7326 39.5435ZM74.4164 24.8083C74.9415 24.8083 75.367 25.2045 75.367 25.6929C75.367 26.1812 74.9415 26.577 74.4164 26.577C73.8913 26.577 73.4658 26.1812 73.4658 25.6929C73.4658 25.2045 73.8913 24.8083 74.4164 24.8083ZM75.9866 39.4287V39.3302C75.5457 39.166 75.2988 38.6574 75.2988 38.1648V28.7449C75.2988 28.2526 75.5457 27.744 75.9866 27.5798V27.4813H72.8461V27.5798C73.2871 27.744 73.5164 28.2526 73.5164 28.7449V38.1648C73.5164 38.6574 73.2871 39.166 72.8461 39.3302V39.4287H75.9866ZM44.7326 39.3139C42.3682 39.3139 40.5152 37.3771 40.5152 33.4219C40.5152 29.5325 42.3682 27.6125 44.7326 27.6125C47.1146 27.6125 48.9672 29.5325 48.9672 33.4219C48.9497 37.3771 47.1146 39.3139 44.7326 39.3139ZM56.4742 39.5435C58.9971 39.5435 60.6381 38.2963 60.6381 36.2778C60.6381 32.339 54.1449 32.8312 54.1449 29.9594C54.1449 28.8433 55.0625 28.1047 56.7742 28.1047C58.8385 28.1047 60.1444 29.3192 60.1444 30.8128H60.2854C60.2854 28.7943 58.8913 27.3829 56.3683 27.3829C54.1449 27.3829 52.5391 28.5153 52.5391 30.4353C52.5391 34.259 59.0327 33.5535 59.0327 36.7207C59.0327 38.0336 58.0268 38.8212 56.1917 38.8212C53.8449 38.8212 52.2923 37.6071 52.2923 35.9657H52.1684C52.1684 38.0009 53.686 39.5435 56.4742 39.5435ZM61.5632 27.4813L61.1046 29.8115H61.1929C61.669 28.8433 62.6397 27.744 64.1041 27.744H65.6041V38.1648C65.5865 38.6574 65.3568 39.166 64.9158 39.3302V39.4287H68.0743V39.3302C67.6333 39.166 67.386 38.6574 67.386 38.1648V27.744H68.9211C70.3859 27.744 71.3738 28.8433 71.8503 29.8115H71.9211L71.4796 27.4813H61.5632ZM89.2842 28.7449C89.2842 28.2526 89.5135 27.744 89.9549 27.5798V27.4813H87.9433L83.7032 36.1097L80.0702 27.4813H77.6883V27.5798C78.1293 27.744 78.3586 28.2526 78.3586 28.7449V38.0336C78.3586 38.4768 78.0941 39.0018 77.6176 39.3302V39.4287H79.4527V39.3302C78.9941 39.0181 78.6585 38.4768 78.6585 38.0336V28.5316L82.9446 38.3745H83.0505L87.5023 29.1881V38.1648C87.5023 38.657 87.2726 39.166 86.8316 39.3302V39.4287H89.9725V39.3302C89.5315 39.166 89.2842 38.6574 89.2842 38.1648V28.7449Z" fill="#CC3B43"/>
<path d="M43.663 42.6336L43.4977 43.8501H42.9617L42.8199 42.8757C42.5471 42.822 42.3078 42.7951 42.1032 42.7951C41.4308 42.7951 40.9082 42.971 40.5354 43.3224C40.1622 43.6742 39.976 44.2139 39.976 44.942C39.976 45.5915 40.1359 46.1316 40.4563 46.5612C40.7768 46.9912 41.2706 47.206 41.9375 47.206C42.3262 47.206 42.7253 47.1255 43.1354 46.9644V45.6965L42.2684 45.5942V45.2642H44.2069V45.6308L43.8441 45.6748V47.2134C43.2404 47.4967 42.5914 47.6383 41.8982 47.6383C41.058 47.6383 40.3856 47.4041 39.8815 46.9352C39.3769 46.4663 39.125 45.8215 39.125 45.0008C39.125 44.1602 39.3953 43.5108 39.9363 43.0516C40.4773 42.5924 41.1919 42.3628 42.0793 42.3628C42.6153 42.3628 43.1429 42.4531 43.663 42.6336ZM50.8477 42.436V42.8021L50.0837 42.8975V47.1402H52.187L52.4786 46.0779H52.9673V47.5652H48.508V47.2356L49.272 47.1402V42.8609L48.508 42.7656V42.436H50.8477ZM62.5077 45.0008C62.5181 45.7576 62.2688 46.3892 61.7592 46.8947C61.2496 47.4002 60.5931 47.6485 59.7898 47.6383C58.9492 47.6383 58.2873 47.3905 57.804 46.8947C57.3208 46.3989 57.0794 45.7674 57.0794 45.0008C57.0794 44.2338 57.3287 43.6022 57.8279 43.1064C58.3266 42.6107 58.9806 42.3628 59.7898 42.3628C60.6353 42.3628 61.2998 42.6107 61.783 43.1064C62.2663 43.6022 62.5077 44.2338 62.5077 45.0008ZM57.9304 44.9638C57.9249 45.5794 58.0877 46.1083 58.4187 46.5503C58.7496 46.9924 59.2195 47.2111 59.8291 47.206C60.3701 47.206 60.8086 47.0037 61.1445 46.5982C61.4809 46.1927 61.6487 45.6724 61.6487 45.0373C61.6541 44.4217 61.4914 43.8929 61.1604 43.4508C60.8295 43.0088 60.3596 42.7901 59.75 42.7951C59.209 42.7951 58.7705 42.9975 58.4346 43.4033C58.0982 43.8084 57.9304 44.3287 57.9304 44.9638ZM71.8196 46.1876C71.8196 46.6223 71.6648 46.962 71.3547 47.206C71.0501 47.4457 70.6564 47.5652 70.1732 47.5652H66.8954V47.199L67.4942 47.1255V42.8757L66.8954 42.8021V42.436H70.0234C70.4698 42.436 70.8322 42.5496 71.1108 42.7764C71.389 43.0037 71.5284 43.3053 71.5284 43.6816C71.5284 43.9797 71.4443 44.2275 71.2761 44.4252C71.1079 44.6233 70.8769 44.7661 70.5828 44.8541C70.961 44.9175 71.2619 45.0689 71.4849 45.3082C71.7083 45.5479 71.8196 45.8409 71.8196 46.1876ZM68.3059 42.8609V44.6782H69.6372C69.9577 44.6782 70.215 44.5988 70.4096 44.44C70.6037 44.2812 70.7008 44.0579 70.7008 43.7695C70.7008 43.4909 70.6025 43.2699 70.4054 43.1064C70.2087 42.9426 69.9527 42.8609 69.6372 42.8609H68.3059ZM70.9924 46.1219C70.9924 45.809 70.8836 45.5611 70.6656 45.3778C70.4476 45.1949 70.1598 45.1031 69.8029 45.1031H68.3059V47.1329H69.8029C70.1598 47.1329 70.4476 47.0437 70.6656 46.8655C70.8836 46.6873 70.9924 46.4394 70.9924 46.1219ZM78.9809 42.436L80.9269 47.1842L81.3683 47.2356V47.5652H79.5324V47.199L80.0365 47.1329L79.5876 45.9826H77.4604L77.019 47.1255L77.5864 47.199V47.5652H75.9396V47.2356L76.3023 47.1916L78.2483 42.436H78.9809ZM78.524 43.2419L77.6098 45.5576H79.4378L78.524 43.2419ZM87.8593 42.436V42.8021L87.0953 42.8975V47.1402H89.1991L89.4903 46.0779H89.979V47.5652H85.5197V47.2356L86.2836 47.1402V42.8609L85.5197 42.7656V42.436H87.8593Z" fill="black"/>
</g>
<defs>
<clipPath id="clip0_189_2657">
<rect width="90" height="54" fill="white"/>
</clipPath>
</defs>
</svg>
