<svg xmlns="http://www.w3.org/2000/svg" width="90" height="54" fill="none" xmlns:v="https://vecta.io/nano"><g clip-path="url(#A)"><g fill-rule="evenodd"><path d="M15.481 38.025c-.822-.204-3.68-1.58-4.465-2.029-1.805-1.035-1.21-8.893-.64-11.155.338-1.341.98-3.819 1.794-4.69.517.381 1.874 2.355 2.492 3.058.909 1.034 1.994 2.031 2.727 2.966-.188.704-.776 1.67-1.104 2.533-1.482 3.907-.99 5.635-.805 9.318zm4.414-12.337c.634-1.151 2.354-2.987 3.294-3.87.807-.758 3.186-2.851 4.202-3.161.746 1.773 2.566 3.134 3.43 4.273-3.048 1.704-5.174 3.838-6.968 6.125-.722-.416-3.459-2.706-3.959-3.368zm-6.83-7.137c.594-2.654 8.08-9.113 11.459-9.856-.177 4.174.985 5.481 1.904 8.544-2.74 1.501-5.923 4.445-7.806 7.11-.968-.258-4.85-4.82-5.557-5.798zm13.19-10.543c3.06-1.443 7.892-1.524 11.63-1.333-.663 1.65-.907 4.502-.897 6.281-1.972.273-7.045 2.183-8.812 3.18-.638-1.596-2.255-6.072-1.92-8.128zm12.248 4.517c-.084-1.977.514-3.762.86-5.523 3.122-.075 8.506 2.738 10.473 4.092 2.261 1.556 3.802 3.043 5.463 5.137.515.65.992 1.548 1.525 2.01-.944-2.939-5.186-6.907-7.83-8.798-7.488-5.352-18.33-6.185-26.906-2.269-4.369 1.995-6.961 4.3-9.352 7.199-8.566 10.386-6.526 25.77 4.862 33.845 2.602 1.846 7.921 4.6 12.007 4.71-.326-.148-4.524-1.215-4.635-1.535-.019-.054-.077-.049-.113-.076.822-.563 3.497-1.064 4.564-2.615-1.078.142-4.055 1.398-6.624 1.462-2.541.062-9.645-6.849-11.315-11.822.93.267 2.467 1.217 3.611 1.667.783.308 1.122.396 1.241.597l1.542 2.615-.752-2.355c3.181.626 5.048 1.816 9.723 1.844-.504-.507-6.206-2.424-7.844-3.099-.701-.289-2.011-.705-2.392-1.225-.616-.75-.031-4.945.19-5.985.259-1.215.789-2.588 1.319-3.773l.678-1.079 4.083 3.167c-.235 1.214-2.292 5.352-1.516 8.066.215-.486.316-1.393.473-1.965.413-1.504 1.318-4.221 2.192-5.298.786.215 1.626.879 2.42 1.324s1.719.931 2.459 1.283c1.148.545 4.062 1.838 5.459 1.995l-.613-.505c-.182-.11-.463-.239-.665-.351-.377-.208-.764-.453-1.177-.694l-4.756-3.03c-.677-.477-1.619-.951-2.135-1.636 1.022-1.897 4.724-5.414 6.682-6.267.807.429 1.683 1.145 2.596 1.468l-1.677-2.014c.679-.561 1.789-.914 2.648-1.515-1.39.108-2.059.563-3.218.831-.657-.491-2.898-3.851-3.136-4.876 1.31-.784 6.365-3.401 8.019-3.705.12.879.478 2.248.746 3.021.336.967.652 1.792 1.172 2.62.098-.154.051.078.086-.312.028-.312-.683-3.482-.462-5.96l3.125-1.161-3.1.488z" fill="#161616"/><g fill="#cc3b43"><path d="M3.952 8.494l-2.427 6.8c-3.54 12.148-.983 25.624 9.41 33.599 2.861 2.195 8.777 5.183 13.565 5.105-4.759-.302-10.139-3.22-12.863-5.433-3.26-2.648-5.787-5.901-7.654-10.22-4.035-9.338-2.007-20.623 2.322-28.729l2.018.629-1.112-4.578L2.52 7.749l1.432.745zm45.257-7.071c-.813.042-2.964-.445-3.938-.565C40.644.289 36.575.186 32.004.847c-5.251.759-10.081 2.459-13.921 4.7C10.856 9.762 4.195 17.737 5.126 28.73c.093-3.082.184-4.753 1.03-7.518C10.305 7.649 25.728 1.227 40.431 2.483c1.844.158 6.518.616 7.871 1.306l-.155 1.724 4.501-1.568L49.838 0l-.628 1.423z"/></g></g><path d="M44.733 39.544c3.511 0 6.229-2.61 6.229-6.138 0-3.479-2.718-6.023-6.229-6.023-3.494 0-6.229 2.576-6.229 6.056 0 3.528 2.735 6.105 6.229 6.105zm29.684-14.735c.525 0 .951.396.951.885s-.425.884-.951.884-.951-.396-.951-.884.425-.885.951-.885zm1.57 14.62v-.099c-.441-.164-.688-.673-.688-1.165v-9.42c0-.492.247-1.001.688-1.165v-.098h-3.14v.098c.441.164.67.673.67 1.165v9.42c0 .493-.229 1.001-.67 1.165v.099h3.14zm-31.254-.115c-2.364 0-4.217-1.937-4.217-5.892 0-3.889 1.853-5.809 4.217-5.809 2.382 0 4.235 1.92 4.235 5.809-.017 3.955-1.853 5.892-4.235 5.892zm11.742.23c2.523 0 4.164-1.247 4.164-3.266 0-3.939-6.493-3.447-6.493-6.318 0-1.116.918-1.855 2.629-1.855 2.064 0 3.37 1.214 3.37 2.708h.141c0-2.018-1.394-3.43-3.917-3.43-2.223 0-3.829 1.132-3.829 3.052 0 3.824 6.494 3.118 6.494 6.285 0 1.313-1.006 2.1-2.841 2.1-2.347 0-3.899-1.214-3.899-2.855h-.124c0 2.035 1.518 3.578 4.306 3.578zm5.089-12.062l-.459 2.33h.088c.476-.968 1.447-2.067 2.911-2.067h1.5v10.421c-.018.493-.247 1.001-.688 1.165v.099h3.158v-.099c-.441-.164-.688-.673-.688-1.165V27.744h1.535c1.465 0 2.453 1.099 2.929 2.067h.071l-.441-2.33h-9.916zm27.721 1.264c0-.492.229-1.001.671-1.165v-.098h-2.012l-4.24 8.628-3.633-8.628h-2.382v.098c.441.164.67.673.67 1.165v9.289c0 .443-.264.968-.741 1.297v.099h1.835v-.099c-.459-.312-.794-.853-.794-1.297v-9.502l4.286 9.843h.106l4.452-9.186v8.977c0 .492-.23 1.001-.671 1.165v.099h3.141v-.099c-.441-.164-.688-.673-.688-1.165v-9.42z" fill="#cc3b43"/><path d="M43.663 42.634l-.165 1.216h-.536l-.142-.974c-.273-.054-.512-.081-.717-.081-.672 0-1.195.176-1.568.527s-.559.892-.559 1.62c0 .65.16 1.19.48 1.619s.814.645 1.481.645c.389 0 .788-.081 1.198-.242v-1.268l-.867-.102v-.33h1.938v.367l-.363.044v1.539c-.604.283-1.253.425-1.946.425-.84 0-1.513-.234-2.017-.703s-.757-1.114-.757-1.934c0-.841.27-1.49.811-1.949s1.256-.689 2.143-.689a4.8 4.8 0 0 1 1.584.271zm7.185-.198v.366l-.764.095v4.243h2.103l.292-1.062h.489v1.487h-4.459v-.33l.764-.095v-4.279l-.764-.095v-.33h2.34zm11.66 2.565c.01.757-.239 1.388-.748 1.894s-1.166.754-1.969.744c-.841 0-1.502-.248-1.986-.744s-.725-1.127-.725-1.894.249-1.399.749-1.894 1.153-.744 1.962-.744c.846 0 1.51.248 1.993.744s.725 1.127.725 1.894zm-4.577-.037c-.005.616.157 1.145.488 1.587s.801.661 1.41.656c.541 0 .98-.202 1.315-.608s.504-.926.504-1.561c.005-.616-.157-1.144-.488-1.587s-.801-.661-1.41-.656c-.541 0-.98.202-1.315.608s-.504.925-.504 1.56zm13.889 1.224c0 .435-.155.774-.465 1.018-.305.24-.698.359-1.181.359h-3.278v-.366l.599-.073v-4.25l-.599-.074v-.366h3.128c.446 0 .809.114 1.087.34a1.11 1.11 0 0 1 .418.905c0 .298-.084.546-.252.744s-.399.341-.693.429c.378.063.679.215.902.454a1.24 1.24 0 0 1 .335.879zm-3.514-3.327v1.817h1.331c.32 0 .578-.079.772-.238s.291-.382.291-.67c0-.279-.098-.5-.295-.663s-.453-.245-.768-.245h-1.331zm2.687 3.261a.92.92 0 0 0-.327-.744c-.218-.183-.506-.275-.863-.275h-1.497v2.03h1.497c.357 0 .645-.089.863-.267s.327-.426.327-.744zm7.989-3.686l1.946 4.748.441.051v.33h-1.836v-.366l.504-.066-.449-1.15H77.46l-.441 1.143.567.073v.366H75.94v-.33l.363-.044 1.946-4.756h.733zm-.457.806l-.914 2.316h1.828l-.914-2.316zm9.335-.806v.366l-.764.095v4.243h2.104l.291-1.062h.489v1.487H85.52v-.33l.764-.095v-4.279l-.764-.095v-.33h2.34z" fill="#000"/></g><defs><clipPath id="A"><path fill="#fff" d="M0 0h90v54H0z"/></clipPath></defs></svg>