<svg width="127" height="77" viewBox="0 0 127 77" fill="none" xmlns="http://www.w3.org/2000/svg">
<path fill-rule="evenodd" clip-rule="evenodd" d="M21.8209 53.6835C20.6608 53.3962 16.6251 51.4535 15.5169 50.8184C12.9692 49.357 13.8086 38.2627 14.6126 35.0691C15.0893 33.1759 15.996 29.6774 17.1461 28.4478C17.8762 28.9851 19.7918 31.7722 20.6643 32.7649C21.9473 34.2252 23.4802 35.6322 24.5151 36.9529C24.2493 37.9462 23.4187 39.3109 22.9568 40.5284C20.864 46.0437 21.5592 48.4841 21.8209 53.6835ZM28.0534 36.2662C28.9477 34.6411 31.3772 32.0491 32.704 30.8031C33.8428 29.7334 37.2015 26.7777 38.6369 26.3409C39.6902 28.8439 42.2591 30.7657 43.4801 32.3732C39.1763 34.779 36.1755 37.7913 33.6432 41.0211C32.6242 40.4339 28.7593 37.2007 28.0534 36.2662ZM18.4108 26.1898C19.2496 22.4424 29.8184 13.3242 34.5895 12.2749C34.3402 18.1676 35.9794 20.0136 37.2777 24.3373C33.4087 26.4568 28.9152 30.6124 26.2565 34.3757C24.889 34.0115 19.4091 27.5715 18.4108 26.1898ZM37.032 11.3047C41.3518 9.26808 48.1744 9.15271 53.4511 9.42246C52.5154 11.7524 52.1699 15.7784 52.1841 18.2902C49.4001 18.6758 42.2384 21.3722 39.7433 22.7798C38.8419 20.5267 36.5595 14.2076 37.032 11.3047ZM54.3236 17.6814C54.2054 14.89 55.0495 12.3705 55.5381 9.8845C59.9465 9.77792 67.547 13.7506 70.3233 15.6613C73.5154 17.8583 75.691 19.9581 78.0361 22.9144C78.7632 23.8319 79.436 25.0993 80.1886 25.7514C78.8565 21.6019 72.8674 15.9998 69.1342 13.3308C58.563 5.77452 43.255 4.59882 31.1486 10.1273C24.9805 12.944 21.3212 16.1981 17.9453 20.291C5.8519 34.9537 8.73216 56.6733 24.8098 68.0736C28.484 70.6794 35.9924 74.5674 41.7612 74.7234C41.3004 74.5152 35.3745 73.0083 35.2168 72.5556C35.1902 72.4792 35.1081 72.4869 35.0573 72.449C36.218 71.654 39.995 70.947 41.5013 68.7576C39.9796 68.9587 35.7762 70.7321 32.1499 70.8211C28.562 70.909 18.5331 61.1524 16.175 54.1312C17.4875 54.5076 19.6583 55.8497 21.2727 56.4848C22.3785 56.9199 22.8564 57.0435 23.0241 57.3281L25.2009 61.02L24.1394 57.6946C28.6305 58.578 31.2656 60.2591 37.8667 60.2987C37.1555 59.5828 29.1048 56.8765 26.7922 55.9233C25.8022 55.5151 23.9533 54.9284 23.4152 54.1933C22.5451 53.1341 23.3709 47.2122 23.6834 45.7443C24.049 44.0291 24.7974 42.0908 25.5458 40.4174L26.5028 38.8939L32.2674 43.3654C31.936 45.0795 29.031 50.9212 30.1267 54.7531C30.4303 54.067 30.5727 52.7858 30.7948 51.9793C31.3778 49.8559 32.6561 46.0206 33.8895 44.4993C34.9994 44.8026 36.1855 45.7404 37.3055 46.3689C38.4267 46.9974 39.7327 47.6836 40.7765 48.1797C42.3973 48.9494 46.5116 50.7745 48.4839 50.9959L47.6185 50.2833C47.3616 50.1284 46.9652 49.9454 46.6799 49.7872C46.1471 49.4933 45.6007 49.1477 45.0183 48.8077L38.3044 44.5307C37.3486 43.8571 36.0184 43.1879 35.29 42.2205C36.7331 39.5427 41.959 34.5768 44.7229 33.3731C45.863 33.9791 47.0987 34.99 48.3876 35.4459L46.0201 32.6023C46.9782 31.8101 48.5453 31.3123 49.7581 30.4635C47.7963 30.6163 46.8512 31.2579 45.2156 31.637C44.2876 30.9437 41.1244 26.1997 40.7877 24.7532C42.6378 23.6467 49.774 19.951 52.1096 19.5219C52.2798 20.7624 52.7848 22.6957 53.1634 23.7868C53.6372 25.1515 54.0838 26.3167 54.818 27.4853C54.9556 27.2677 54.8901 27.5952 54.9397 27.0452C54.9793 26.6041 53.9757 22.1293 54.2881 18.6308L58.7007 16.992L54.3236 17.6814Z" fill="white"/>
<path fill-rule="evenodd" clip-rule="evenodd" d="M5.54588 11.9924L2.11982 21.5929C-2.87809 38.7443 0.731676 57.7686 15.4053 69.0289C19.4445 72.128 27.7964 76.3462 34.5558 76.2358C27.8371 75.8094 20.2419 71.6901 16.3959 68.5657C11.7937 64.8277 8.2253 60.2342 5.59019 54.1366C-0.106527 40.9534 2.7566 25.0206 8.86798 13.5762L11.7175 14.4641L10.148 8.00049L3.52451 10.9403L5.54588 11.9924Z" fill="white"/>
<path fill-rule="evenodd" clip-rule="evenodd" d="M69.4431 2.00857C68.2948 2.06735 65.2592 1.38007 63.8829 1.21085C57.3497 0.408196 51.6052 0.262608 45.1518 1.19547C37.7385 2.26678 30.9194 4.66761 25.4974 7.83045C15.2948 13.7814 5.89148 25.0412 7.20638 40.5609C7.33811 36.2092 7.46629 33.8506 8.66069 29.9461C14.5169 10.7994 36.2919 1.73168 57.0497 3.5062C59.6535 3.72926 66.2522 4.37644 68.1613 5.3505L67.9422 7.7843L74.2963 5.57081L70.3304 0L69.4431 2.00857Z" fill="white"/>
<path d="M63.1209 55.8276C68.0781 55.8276 71.9147 52.1434 71.9147 47.1621C71.9147 42.2505 68.0781 38.6592 63.1209 38.6592C58.188 38.6592 54.3271 42.2967 54.3271 47.2088C54.3271 52.1901 58.188 55.8276 63.1209 55.8276ZM105.029 35.0244C105.77 35.0244 106.371 35.5837 106.371 36.2732C106.371 36.9627 105.77 37.5214 105.029 37.5214C104.287 37.5214 103.687 36.9627 103.687 36.2732C103.687 35.5837 104.287 35.0244 105.029 35.0244ZM107.246 55.6655V55.5265C106.623 55.2947 106.275 54.5766 106.275 53.8811V40.582C106.275 39.8871 106.623 39.169 107.246 38.9372V38.7982H102.812V38.9372C103.434 39.169 103.758 39.8871 103.758 40.582V53.8811C103.758 54.5766 103.434 55.2947 102.812 55.5265V55.6655H107.246ZM63.1209 55.5035C59.7829 55.5035 57.1666 52.7691 57.1666 47.1852C57.1666 41.694 59.7829 38.9833 63.1209 38.9833C66.4838 38.9833 69.0994 41.694 69.0994 47.1852C69.0746 52.7691 66.4838 55.5035 63.1209 55.5035ZM79.6977 55.8276C83.2596 55.8276 85.5764 54.0668 85.5764 51.2171C85.5764 45.6562 76.4093 46.3512 76.4093 42.2967C76.4093 40.721 77.7047 39.6783 80.1213 39.6783C83.0358 39.6783 84.8793 41.3929 84.8793 43.5015H85.0784C85.0784 40.6518 83.1102 38.6592 79.5483 38.6592C76.4093 38.6592 74.1422 40.2579 74.1422 42.9686C74.1422 48.3669 83.3099 47.3708 83.3099 51.8423C83.3099 53.696 81.8898 54.8079 79.299 54.8079C75.9858 54.8079 73.7937 53.0938 73.7937 50.7765H73.6188C73.6188 53.6498 75.7613 55.8276 79.6977 55.8276ZM86.8824 38.7982L86.235 42.0879H86.3596C87.0319 40.721 88.4023 39.169 90.4697 39.169H92.5874V53.8811C92.5626 54.5766 92.2383 55.2947 91.6157 55.5265V55.6655H96.0749V55.5265C95.4523 55.2947 95.1032 54.5766 95.1032 53.8811V39.169H97.2705C99.3385 39.169 100.733 40.721 101.406 42.0879H101.506L100.883 38.7982H86.8824ZM126.019 40.582C126.019 39.8871 126.343 39.169 126.966 38.9372V38.7982H124.126L118.14 50.9798L113.011 38.7982H109.648V38.9372C110.271 39.169 110.594 39.8871 110.594 40.582V53.696C110.594 54.3217 110.221 55.0628 109.548 55.5265V55.6655H112.139V55.5265C111.492 55.0859 111.018 54.3217 111.018 53.696V40.281L117.069 54.1772H117.218L123.503 41.2078V53.8811C123.503 54.5761 123.179 55.2947 122.557 55.5265V55.6655H126.991V55.5265C126.368 55.2947 126.019 54.5766 126.019 53.8811V40.582Z" fill="white"/>
<path d="M61.6103 60.1905L61.377 61.9079H60.6203L60.4201 60.5322C60.035 60.4564 59.6971 60.4185 59.4082 60.4185C58.459 60.4185 57.7212 60.6668 57.1949 61.1629C56.668 61.6596 56.4051 62.4216 56.4051 63.4495C56.4051 64.3664 56.6307 65.1289 57.0832 65.7355C57.5357 66.3425 58.2327 66.6458 59.1743 66.6458C59.7231 66.6458 60.2866 66.5321 60.8655 66.3046V64.5147L59.6415 64.3702V63.9044H62.3783V64.4219L61.8661 64.484V66.6562C61.0137 67.0562 60.0976 67.2562 59.1188 67.2562C57.9327 67.2562 56.9834 66.9254 56.2716 66.2634C55.5592 65.6014 55.2036 64.6911 55.2036 63.5324C55.2036 62.3457 55.5852 61.4288 56.349 60.7805C57.1128 60.1322 58.1217 59.8081 59.3745 59.8081C60.1312 59.8081 60.8761 59.9356 61.6103 60.1905ZM71.7539 59.9114V60.4284L70.6752 60.563V66.553H73.6447L74.0564 65.0531H74.7463V67.1529H68.4507V66.6876L69.5293 66.553V60.5113L68.4507 60.3767V59.9114H71.7539ZM88.2155 63.5324C88.2303 64.601 87.8782 65.4926 87.1587 66.2063C86.4393 66.92 85.5124 67.2705 84.3783 67.2562C83.1916 67.2562 82.2571 66.9062 81.5748 66.2063C80.8926 65.5064 80.5517 64.6147 80.5517 63.5324C80.5517 62.4496 80.9038 61.5579 81.6085 60.858C82.3126 60.1581 83.2359 59.8081 84.3783 59.8081C85.5721 59.8081 86.5101 60.1581 87.1924 60.858C87.8747 61.5579 88.2155 62.4496 88.2155 63.5324ZM81.7532 63.4802C81.7455 64.3494 81.9753 65.096 82.4426 65.7201C82.9098 66.3442 83.5732 66.6529 84.4338 66.6458C85.1976 66.6458 85.8167 66.3601 86.291 65.7877C86.7659 65.2152 87.0028 64.4807 87.0028 63.5841C87.0105 62.7149 86.7807 61.9683 86.3134 61.3442C85.8462 60.7201 85.1828 60.4113 84.3222 60.4185C83.5584 60.4185 82.9394 60.7042 82.465 61.2772C81.9901 61.8491 81.7532 62.5836 81.7532 63.4802ZM101.362 65.2081C101.362 65.8217 101.144 66.3013 100.706 66.6458C100.276 66.9842 99.72 67.1529 99.0377 67.1529H94.4102V66.6359L95.2555 66.5321V60.5322L94.4102 60.4284V59.9114H98.8262C99.4565 59.9114 99.9681 60.0718 100.361 60.3921C100.754 60.713 100.951 61.1387 100.951 61.67C100.951 62.0908 100.832 62.4408 100.595 62.7199C100.357 62.9995 100.031 63.2011 99.616 63.3253C100.15 63.4148 100.575 63.6286 100.89 63.9664C101.205 64.3049 101.362 64.7186 101.362 65.2081ZM96.4014 60.5113V63.077H98.281C98.7335 63.077 99.0968 62.9649 99.3715 62.7407C99.6455 62.5166 99.7826 62.2012 99.7826 61.7941C99.7826 61.4008 99.6438 61.0887 99.3655 60.858C99.0879 60.6267 98.7264 60.5113 98.281 60.5113H96.4014ZM100.194 65.1152C100.194 64.6735 100.041 64.3235 99.733 64.0648C99.4252 63.8066 99.0188 63.6769 98.5149 63.6769H96.4014V66.5425H98.5149C99.0188 66.5425 99.4252 66.4167 99.733 66.1651C100.041 65.9135 100.194 65.5635 100.194 65.1152ZM111.473 59.9114L114.22 66.615L114.843 66.6876V67.1529H112.251V66.6359L112.963 66.5425L112.329 64.9185H109.326L108.703 66.5321L109.504 66.6359V67.1529H107.179V66.6876L107.691 66.6255L110.438 59.9114H111.473ZM110.827 61.0492L109.537 64.3186H112.118L110.827 61.0492ZM124.007 59.9114V60.4284L122.929 60.563V66.553H125.899L126.31 65.0531H127V67.1529H120.704V66.6876L121.783 66.553V60.5113L120.704 60.3767V59.9114H124.007Z" fill="white"/>
</svg>
