<svg width="436" height="254" viewBox="0 0 436 254" fill="none" xmlns="http://www.w3.org/2000/svg">
<path fill-rule="evenodd" clip-rule="evenodd" d="M74.9828 178.857C71.002 177.9 57.1541 171.427 53.3516 169.311C44.6095 164.443 47.4898 127.48 50.2484 116.839C51.8841 110.532 54.9954 98.876 58.9418 94.7796C61.4471 96.5697 68.0204 105.855 71.0141 109.163C75.4166 114.028 80.6764 118.716 84.2276 123.116C83.3155 126.425 80.4656 130.972 78.8806 135.028C71.6992 153.403 74.0849 161.534 74.9828 178.857ZM96.3688 120.828C99.4375 115.414 107.774 106.778 112.327 102.626C116.235 99.0627 127.76 89.2152 132.685 87.76C136.299 96.0993 145.114 102.502 149.304 107.858C134.536 115.873 124.239 125.909 115.549 136.67C112.053 134.713 98.791 123.941 96.3688 120.828ZM63.2815 87.2567C66.1597 74.7715 102.425 44.3925 118.797 40.8965C117.941 60.5293 123.566 66.6794 128.021 81.0846C114.745 88.1462 99.3261 101.991 90.2029 114.53C85.5106 113.316 66.7069 91.8601 63.2815 87.2567ZM127.178 37.664C142.001 30.8787 165.412 30.4943 183.518 31.3931C180.307 39.1558 179.122 52.5689 179.17 60.9374C169.617 62.2224 145.043 71.2059 136.481 75.8954C133.388 68.389 125.556 47.3358 127.178 37.664ZM186.512 58.9094C186.106 49.6091 189.003 41.2149 190.679 32.9324C205.806 32.5773 231.886 45.8129 241.413 52.179C252.366 59.4987 259.831 66.4945 267.878 76.3439C270.373 79.4006 272.682 83.6233 275.264 85.796C270.693 71.971 250.143 53.3065 237.333 44.4145C201.059 19.2392 148.531 15.3222 106.99 33.7415C85.8248 43.1259 73.2681 53.9673 61.6842 67.6037C20.1873 116.455 30.0705 188.818 85.239 226.8C97.8464 235.482 123.61 248.436 143.405 248.955C141.824 248.262 121.49 243.241 120.949 241.733C120.858 241.478 120.576 241.504 120.402 241.378C124.385 238.729 137.345 236.373 142.514 229.079C137.292 229.749 122.869 235.658 110.425 235.954C98.114 236.247 63.701 203.741 55.6096 180.349C60.1134 181.602 67.5623 186.074 73.1019 188.19C76.8962 189.64 78.536 190.052 79.1116 191L86.5808 203.3L82.9385 192.221C98.3491 195.164 107.391 200.765 130.042 200.897C127.601 198.512 99.9767 189.495 92.0413 186.319C88.6442 184.959 82.3 183.005 80.4535 180.555C77.4678 177.026 80.3014 157.297 81.3737 152.406C82.6283 146.691 85.1964 140.234 87.7645 134.658L91.0481 129.583L110.829 144.48C109.692 150.191 99.7233 169.654 103.483 182.421C104.525 180.134 105.014 175.866 105.776 173.179C107.776 166.105 112.162 153.327 116.395 148.258C120.203 149.269 124.273 152.393 128.116 154.487C131.963 156.581 136.445 158.867 140.026 160.52C145.588 163.084 159.706 169.165 166.474 169.903L163.504 167.529C162.623 167.012 161.262 166.403 160.283 165.876C158.455 164.896 156.58 163.745 154.582 162.612L131.544 148.363C128.264 146.118 123.7 143.889 121.201 140.666C126.152 131.744 144.084 115.199 153.568 111.189C157.48 113.208 161.721 116.576 166.143 118.095L158.019 108.621C161.307 105.982 166.684 104.323 170.846 101.495C164.114 102.004 160.871 104.142 155.259 105.405C152.074 103.095 141.22 87.2896 140.065 82.4702C146.413 78.7838 170.9 66.4707 178.915 65.0412C179.499 69.1742 181.232 75.6154 182.531 79.2505C184.156 83.7972 185.689 87.6795 188.208 91.5727C188.681 90.8479 188.456 91.9388 188.626 90.1066C188.762 88.6368 185.318 73.7282 186.39 62.0723L201.531 56.6122L186.512 58.9094Z" fill="white"/>
<path fill-rule="evenodd" clip-rule="evenodd" d="M19.1374 39.9538L7.38132 71.9399C-9.76839 129.083 2.61808 192.466 52.9686 229.982C66.8287 240.307 95.4872 254.361 118.681 253.993C95.627 252.572 69.565 238.848 56.3678 228.439C40.5761 215.985 28.3315 200.681 19.2894 180.365C-0.258113 136.443 9.56634 83.3597 30.5368 45.2308L40.3146 48.1887L34.9291 26.6542L12.2013 36.4486L19.1374 39.9538Z" fill="#CC3B43"/>
<path fill-rule="evenodd" clip-rule="evenodd" d="M238.393 6.69192C234.452 6.88777 224.036 4.59795 219.313 4.03419C196.896 1.35998 177.184 0.874928 155.04 3.98294C129.602 7.5522 106.203 15.551 87.5983 26.0886C52.5895 45.9154 20.3231 83.4293 24.835 135.136C25.287 120.638 25.7268 112.78 29.8252 99.7711C49.92 35.98 124.638 5.7694 195.866 11.6816C204.801 12.4247 227.443 14.5809 233.994 17.8262L233.242 25.9348L255.046 18.5602L241.437 0L238.393 6.69192Z" fill="#CC3B43"/>
<path d="M216.701 186.001C233.71 186.001 246.875 173.726 246.875 157.13C246.875 140.766 233.71 128.801 216.701 128.801C199.774 128.801 186.526 140.92 186.526 157.286C186.526 173.882 199.774 186.001 216.701 186.001ZM360.502 116.691C363.046 116.691 365.107 118.555 365.107 120.852C365.107 123.149 363.046 125.01 360.502 125.01C357.958 125.01 355.897 123.149 355.897 120.852C355.897 118.555 357.958 116.691 360.502 116.691ZM368.109 185.461V184.998C365.973 184.225 364.777 181.833 364.777 179.516V135.207C364.777 132.892 365.973 130.5 368.109 129.727V129.264H352.895V129.727C355.031 130.5 356.142 132.892 356.142 135.207V179.516C356.142 181.833 355.031 184.225 352.895 184.998V185.461H368.109ZM216.701 184.921C205.246 184.921 196.269 175.811 196.269 157.207C196.269 138.912 205.246 129.881 216.701 129.881C228.24 129.881 237.215 138.912 237.215 157.207C237.13 175.811 228.24 184.921 216.701 184.921ZM273.582 186.001C285.804 186.001 293.754 180.134 293.754 170.64C293.754 152.113 262.298 154.428 262.298 140.92C262.298 135.671 266.743 132.196 275.035 132.196C285.036 132.196 291.362 137.909 291.362 144.934H292.045C292.045 135.44 285.291 128.801 273.069 128.801C262.298 128.801 254.519 134.128 254.519 143.159C254.519 161.144 285.976 157.826 285.976 172.723C285.976 178.899 281.104 182.604 272.214 182.604C260.845 182.604 253.323 176.893 253.323 169.172H252.723C252.723 178.745 260.074 186.001 273.582 186.001ZM298.235 129.264L296.014 140.225H296.441C298.748 135.671 303.45 130.5 310.545 130.5H317.811V179.516C317.726 181.833 316.613 184.225 314.477 184.998V185.461H329.778V184.998C327.642 184.225 326.444 181.833 326.444 179.516V130.5H333.88C340.977 130.5 345.762 135.671 348.071 140.225H348.413L346.275 129.264H298.235ZM432.528 135.207C432.528 132.892 433.639 130.5 435.777 129.727V129.264H426.032L405.491 169.85L387.892 129.264H376.352V129.727C378.489 130.5 379.6 132.892 379.6 135.207V178.899C379.6 180.984 378.318 183.453 376.01 184.998V185.461H384.9V184.998C382.678 183.53 381.053 180.984 381.053 178.899V134.204L401.816 180.502H402.329L423.896 137.292V179.516C423.896 181.831 422.783 184.225 420.647 184.998V185.461H435.863V184.998C433.726 184.225 432.528 181.833 432.528 179.516V135.207Z" fill="#CC3B43"/>
<path d="M211.518 200.536L210.717 206.258H208.12L207.433 201.675C206.112 201.422 204.952 201.296 203.961 201.296C200.704 201.296 198.172 202.123 196.366 203.776C194.558 205.431 193.656 207.969 193.656 211.394C193.656 214.449 194.431 216.989 195.983 219.01C197.536 221.033 199.928 222.043 203.159 222.043C205.042 222.043 206.975 221.664 208.962 220.906V214.943L204.762 214.462V212.91H214.153V214.634L212.395 214.841V222.078C209.47 223.41 206.327 224.077 202.968 224.077C198.898 224.077 195.641 222.975 193.198 220.769C190.754 218.564 189.534 215.531 189.534 211.67C189.534 207.717 190.843 204.662 193.464 202.502C196.085 200.342 199.547 199.262 203.846 199.262C206.442 199.262 208.998 199.687 211.518 200.536ZM246.324 199.606V201.329L242.623 201.777V221.734H252.812L254.225 216.737H256.592V223.733H234.989V222.182L238.69 221.734V201.605L234.989 201.157V199.606H246.324ZM302.81 211.67C302.86 215.23 301.652 218.201 299.184 220.579C296.715 222.957 293.535 224.124 289.643 224.077C285.571 224.077 282.364 222.911 280.023 220.579C277.682 218.247 276.513 215.276 276.513 211.67C276.513 208.063 277.721 205.092 280.139 202.76C282.555 200.428 285.723 199.262 289.643 199.262C293.739 199.262 296.958 200.428 299.299 202.76C301.64 205.092 302.81 208.063 302.81 211.67ZM280.635 211.496C280.609 214.392 281.397 216.88 283.001 218.959C284.604 221.038 286.88 222.067 289.833 222.043C292.454 222.043 294.578 221.091 296.206 219.184C297.836 217.277 298.649 214.83 298.649 211.842C298.675 208.947 297.886 206.459 296.283 204.38C294.68 202.301 292.404 201.272 289.45 201.296C286.83 201.296 284.705 202.247 283.078 204.157C281.448 206.062 280.635 208.509 280.635 211.496ZM347.921 217.253C347.921 219.298 347.171 220.896 345.669 222.043C344.193 223.171 342.286 223.733 339.945 223.733H324.066V222.01L326.967 221.664V201.675L324.066 201.329V199.606H339.219C341.382 199.606 343.137 200.141 344.487 201.208C345.835 202.277 346.51 203.695 346.51 205.465C346.51 206.867 346.103 208.033 345.288 208.963C344.473 209.895 343.354 210.567 341.929 210.98C343.762 211.279 345.219 211.991 346.299 213.116C347.382 214.244 347.921 215.622 347.921 217.253ZM330.899 201.605V210.153H337.348C338.901 210.153 340.148 209.78 341.09 209.033C342.031 208.286 342.501 207.235 342.501 205.879C342.501 204.568 342.024 203.529 341.07 202.76C340.117 201.989 338.877 201.605 337.348 201.605H330.899ZM343.914 216.944C343.914 215.472 343.387 214.306 342.331 213.444C341.275 212.584 339.88 212.152 338.151 212.152H330.899V221.699H338.151C339.88 221.699 341.275 221.28 342.331 220.442C343.387 219.603 343.914 218.437 343.914 216.944ZM382.613 199.606L392.041 221.941L394.179 222.182V223.733H385.285V222.01L387.727 221.699L385.552 216.288H375.248L373.109 221.664L375.858 222.01V223.733H367.88V222.182L369.637 221.975L379.064 199.606H382.613ZM380.4 203.397L375.971 214.29H384.827L380.4 203.397ZM425.625 199.606V201.329L421.923 201.777V221.734H432.115L433.525 216.737H435.893V223.733H414.29V222.182L417.991 221.734V201.605L414.29 201.157V199.606H425.625Z" fill="white"/>
</svg>
